<?xml version="1.0" encoding="UTF-8"?>
<svg id="Capa_1" data-name="Capa 1" xmlns="http://www.w3.org/2000/svg" viewBox="0 0 500 500">
  <defs>
    <style>
      .cls-1 {
        fill: #f2f2f2;
      }

      .cls-1, .cls-2, .cls-3 {
        stroke-width: 0px;
      }

      .cls-2 {
        fill: gold;
      }

      .cls-3 {
        fill: #e6007e;
      }
    </style>
  </defs>
  <circle class="cls-3" cx="250" cy="250" r="250"/>
  <path class="cls-2" d="M337.17,159.99l-71.13,11.25-5.15-32.56c-5.45-34.46,16.07-66.49,48.07-71.55l71.13-11.25,5.15,32.57c5.45,34.46-16.07,66.49-48.07,71.55Z"/>
  <path class="cls-1" d="M235.41,73.75l-31.36,4.96c-60.81,9.61-103.93,56.45-96.31,104.62l44.29,280.12,31.36-4.96c60.81-9.61,103.93-56.45,96.31-104.62l-44.29-280.12Z"/>
  <path class="cls-1" d="M317.29,312.81l-45.59,7.21-17.12-108.3,103.58-16.38,5.08,32.11c6.65,42.08-13.91,80.29-45.94,85.35Z"/>
</svg>